<svg width="162" height="79" viewBox="0 0 162 79" fill="none" xmlns="http://www.w3.org/2000/svg">
<path d="M105.298 7.47273L105.298 7.4727L105.286 7.47956C99.8349 10.6536 95.5224 15.0763 92.3669 20.6991C89.1914 26.2932 87.628 32.5798 87.628 39.496C87.628 46.4146 89.1924 52.7031 92.3701 58.2986C95.5279 63.859 99.8408 68.2458 105.286 71.4164L105.302 71.4258L105.318 71.4349C110.834 74.5375 116.924 76.076 123.536 76.076C131.242 76.076 138.089 74.2453 143.981 70.5022L143.989 70.4966L143.998 70.4909C149.906 66.6681 154.199 61.2781 156.873 54.4204L158.202 51.012H154.544H144.08H142.479L141.809 52.4666C140.144 56.084 137.775 58.7959 134.707 60.6943C131.717 62.5199 128.03 63.492 123.536 63.492C119.269 63.492 115.52 62.5034 112.224 60.5713C108.932 58.6412 106.339 55.92 104.435 52.3448C102.542 48.7277 101.556 44.4682 101.556 39.496C101.556 34.4497 102.546 30.1965 104.431 26.6546L104.435 26.6473L104.439 26.64C106.347 22.9976 108.94 20.2501 112.224 18.3247C115.52 16.3926 119.269 15.404 123.536 15.404C128.02 15.404 131.697 16.4032 134.684 18.2836L134.693 18.2891L134.701 18.2945C137.773 20.193 140.143 22.906 141.809 26.5254L142.479 27.98H144.08H154.544H158.189L156.876 24.5795C154.204 17.6594 149.913 12.2321 143.998 8.40507C138.104 4.59121 131.251 2.724 123.536 2.724C116.914 2.724 110.817 4.29943 105.298 7.47273Z" fill="white" stroke="#121010" stroke-width="5"/>
<path d="M20.2978 7.47273L20.2978 7.4727L20.286 7.47956C14.8349 10.6536 10.5224 15.0763 7.36685 20.6991C4.19136 26.2932 2.62799 32.5798 2.62799 39.496C2.62799 46.4146 4.19243 52.7031 7.37009 58.2986C10.5279 63.859 14.8407 68.2458 20.286 71.4164L20.3021 71.4258L20.3183 71.4349C25.834 74.5375 31.9239 76.076 38.536 76.076C46.2424 76.076 53.0887 74.2453 58.9806 70.5022L58.9894 70.4966L58.9981 70.4909C64.9061 66.6681 69.1986 61.2781 71.8731 54.4204L73.2024 51.012H69.544H59.08H57.4786L56.809 52.4666C55.1439 56.084 52.7752 58.7959 49.7066 60.6943C46.7166 62.5199 43.0301 63.492 38.536 63.492C34.2691 63.492 30.5203 62.5034 27.2243 60.5713C23.9318 58.6412 21.3393 55.92 19.4348 52.3448C17.5418 48.7277 16.556 44.4682 16.556 39.496C16.556 34.4497 17.5457 30.1965 19.4309 26.6546L19.4347 26.6473L19.4386 26.64C21.3465 22.9976 23.9399 20.2501 27.2243 18.3247C30.5203 16.3926 34.2691 15.404 38.536 15.404C43.0197 15.404 46.6975 16.4032 49.684 18.2836L49.6927 18.2891L49.7014 18.2945C52.7725 20.193 55.143 22.9059 56.809 26.5254L57.4786 27.98H59.08H69.544H73.1893L71.8762 24.5795C69.2041 17.6594 64.9126 12.2321 58.9981 8.40507C53.104 4.59121 46.2513 2.724 38.536 2.724C31.9139 2.724 25.8166 4.29943 20.2978 7.47273Z" fill="white" stroke="#121010" stroke-width="5"/>
</svg>
